<svg xmlns="http://www.w3.org/2000/svg" viewBox="0 0 89.29 89.29"><defs><style>.cls-1{fill:#ffffff;}.cls-2{fill:#ffffff;}</style></defs><title>Warstwa 2</title><g id="Warstwa_2" data-name="Warstwa 2"><g id="Warstwa_2-2" data-name="Warstwa 2"><path class="cls-1" d="M2.13,2.13h85V32.68h-27A7.17,7.17,0,0,0,53,39.83V87.17h-4.2V39.83A11.34,11.34,0,0,1,60.15,28.46H70.38l-.59-3.09a7.12,7.12,0,0,0-8.31-5.7L23.81,26.79a7.21,7.21,0,0,0-5.7,8.36l9.78,52H2.13Zm56.38,51a7.15,7.15,0,0,0,.37,2.3,5.68,5.68,0,0,0,1,1.81,5.92,5.92,0,0,0,1.53,1.31,6.81,6.81,0,0,0,1.81.79,8,8,0,0,0,2,.26,7.82,7.82,0,0,0,2-.26,7.07,7.07,0,0,0,1.84-.76,5.35,5.35,0,0,0,1.5-1.31,5.84,5.84,0,0,0,1-1.84A7.4,7.4,0,0,0,72,53V40.59A1.4,1.4,0,0,0,70.44,39H63.21a1.58,1.58,0,0,0-1.16.4,1.66,1.66,0,0,0-.4,1.16v1.14a1.4,1.4,0,0,0,1.56,1.56h3.86v9.6a2.94,2.94,0,0,1-.23,1.22,1.89,1.89,0,0,1-.62.71,2.17,2.17,0,0,1-1,.23,1.49,1.49,0,0,1-1-.31,2.25,2.25,0,0,1-.6-.74,3.06,3.06,0,0,1-.25-1,2,2,0,0,0-.23-.82.88.88,0,0,0-.45-.46,1.75,1.75,0,0,0-.82-.14H60.07a1.38,1.38,0,0,0-1.56,1.53ZM26.79,51.45a1.34,1.34,0,0,0,.31,1.25,1.28,1.28,0,0,0,1.25.25l1.81-.34a1.89,1.89,0,0,0,1.05-.51A1.87,1.87,0,0,0,31.63,51l.29-3,6.15-1.19,1.36,2.75a1.9,1.9,0,0,0,.82.82,1.72,1.72,0,0,0,1.14.12l1.84-.35a1.41,1.41,0,0,0,1.08-.7,1.37,1.37,0,0,0-.17-1.28L35.26,32.4a1.85,1.85,0,0,0-.82-.82,1.91,1.91,0,0,0-1.13-.09l-2.5.46a1.71,1.71,0,0,0-1,.51,1.82,1.82,0,0,0-.45,1.07Zm5.52-7.57.4-4.08c0-.26.06-.54.09-.85s0-.65,0-1,0-.59,0-.85,0-.48,0-.65v-.22l.06,0a1.66,1.66,0,0,0,.08.22c.06.15.15.34.26.6a7,7,0,0,0,.34.79c.11.29.25.57.37.88s.25.54.39.77l1.82,3.65Z"/><path class="cls-2" d="M2.13,0h85a2.14,2.14,0,0,1,2.12,2.13v85a2.13,2.13,0,0,1-2.12,2.12h-85A2.14,2.14,0,0,1,0,87.17v-85A2.14,2.14,0,0,1,2.13,0ZM85,4.25H4.25V85H85Z"/></g></g></svg>
